<svg id="visual" viewBox="0 0 900 100" width="900" height="100" xmlns="http://www.w3.org/2000/svg" xmlns:xlink="http://www.w3.org/1999/xlink" version="1.1"><rect x="0" y="0" width="900" height="100" fill="#36454f"></rect><path d="M0 77L6.5 75.7C13 74.3 26 71.7 39 70.8C52 70 65 71 78 67.7C91 64.3 104 56.7 117.2 58C130.3 59.3 143.7 69.7 156.8 71.8C170 74 183 68 196 68.8C209 69.7 222 77.3 235 76C248 74.7 261 64.3 274 62.3C287 60.3 300 66.7 313 68.7C326 70.7 339 68.3 352 70.2C365 72 378 78 391 80.5C404 83 417 82 430.2 81.8C443.3 81.7 456.7 82.3 469.8 76.2C483 70 496 57 509 53C522 49 535 54 548 56.8C561 59.7 574 60.3 587 59.8C600 59.3 613 57.7 626 62.7C639 67.7 652 79.3 665 80.8C678 82.3 691 73.7 704 65C717 56.3 730 47.7 743.2 48.3C756.3 49 769.7 59 782.8 61.8C796 64.7 809 60.3 822 55.8C835 51.3 848 46.7 861 50.2C874 53.7 887 65.3 893.5 71.2L900 77L900 0L893.5 0C887 0 874 0 861 0C848 0 835 0 822 0C809 0 796 0 782.8 0C769.7 0 756.3 0 743.2 0C730 0 717 0 704 0C691 0 678 0 665 0C652 0 639 0 626 0C613 0 600 0 587 0C574 0 561 0 548 0C535 0 522 0 509 0C496 0 483 0 469.8 0C456.7 0 443.3 0 430.2 0C417 0 404 0 391 0C378 0 365 0 352 0C339 0 326 0 313 0C300 0 287 0 274 0C261 0 248 0 235 0C222 0 209 0 196 0C183 0 170 0 156.8 0C143.7 0 130.3 0 117.2 0C104 0 91 0 78 0C65 0 52 0 39 0C26 0 13 0 6.5 0L0 0Z" fill="#6366f1"></path><path d="M0 51L6.5 55.2C13 59.3 26 67.7 39 68.2C52 68.7 65 61.3 78 56.7C91 52 104 50 117.2 49.5C130.3 49 143.7 50 156.8 50.2C170 50.3 183 49.7 196 49.7C209 49.7 222 50.3 235 53.2C248 56 261 61 274 58.3C287 55.7 300 45.3 313 41C326 36.7 339 38.3 352 42.3C365 46.3 378 52.7 391 52.8C404 53 417 47 430.2 45.7C443.3 44.3 456.7 47.7 469.8 51.2C483 54.7 496 58.3 509 58.5C522 58.7 535 55.3 548 56.8C561 58.3 574 64.7 587 62.2C600 59.7 613 48.3 626 44.3C639 40.3 652 43.7 665 47.3C678 51 691 55 704 58.3C717 61.7 730 64.3 743.2 64.3C756.3 64.3 769.7 61.7 782.8 60.7C796 59.7 809 60.3 822 60C835 59.7 848 58.3 861 59.3C874 60.3 887 63.7 893.5 65.3L900 67L900 0L893.5 0C887 0 874 0 861 0C848 0 835 0 822 0C809 0 796 0 782.8 0C769.7 0 756.3 0 743.2 0C730 0 717 0 704 0C691 0 678 0 665 0C652 0 639 0 626 0C613 0 600 0 587 0C574 0 561 0 548 0C535 0 522 0 509 0C496 0 483 0 469.8 0C456.7 0 443.3 0 430.2 0C417 0 404 0 391 0C378 0 365 0 352 0C339 0 326 0 313 0C300 0 287 0 274 0C261 0 248 0 235 0C222 0 209 0 196 0C183 0 170 0 156.8 0C143.7 0 130.3 0 117.2 0C104 0 91 0 78 0C65 0 52 0 39 0C26 0 13 0 6.5 0L0 0Z" fill="#948af6"></path><path d="M0 36L6.5 39.5C13 43 26 50 39 53.2C52 56.3 65 55.7 78 51.5C91 47.3 104 39.7 117.2 40.2C130.3 40.7 143.7 49.3 156.8 52.8C170 56.3 183 54.7 196 52.8C209 51 222 49 235 49.3C248 49.7 261 52.3 274 53C287 53.7 300 52.3 313 48.7C326 45 339 39 352 38.8C365 38.7 378 44.3 391 47.2C404 50 417 50 430.2 46C443.3 42 456.7 34 469.8 30C483 26 496 26 509 25.3C522 24.7 535 23.3 548 28.3C561 33.3 574 44.7 587 49.7C600 54.7 613 53.3 626 53.7C639 54 652 56 665 50.8C678 45.7 691 33.3 704 31.7C717 30 730 39 743.2 40.5C756.3 42 769.7 36 782.8 37.7C796 39.3 809 48.7 822 53C835 57.3 848 56.7 861 50.5C874 44.3 887 32.7 893.5 26.8L900 21L900 0L893.5 0C887 0 874 0 861 0C848 0 835 0 822 0C809 0 796 0 782.8 0C769.7 0 756.3 0 743.2 0C730 0 717 0 704 0C691 0 678 0 665 0C652 0 639 0 626 0C613 0 600 0 587 0C574 0 561 0 548 0C535 0 522 0 509 0C496 0 483 0 469.8 0C456.7 0 443.3 0 430.2 0C417 0 404 0 391 0C378 0 365 0 352 0C339 0 326 0 313 0C300 0 287 0 274 0C261 0 248 0 235 0C222 0 209 0 196 0C183 0 170 0 156.8 0C143.7 0 130.3 0 117.2 0C104 0 91 0 78 0C65 0 52 0 39 0C26 0 13 0 6.5 0L0 0Z" fill="#bbb0fa"></path><path d="M0 28L6.5 29C13 30 26 32 39 31.3C52 30.7 65 27.3 78 29C91 30.7 104 37.3 117.2 35.8C130.3 34.3 143.7 24.7 156.8 22.2C170 19.7 183 24.3 196 28.2C209 32 222 35 235 33.7C248 32.3 261 26.7 274 24.5C287 22.3 300 23.7 313 26.8C326 30 339 35 352 37C365 39 378 38 391 34.3C404 30.7 417 24.3 430.2 23C443.3 21.7 456.7 25.3 469.8 29.2C483 33 496 37 509 38.5C522 40 535 39 548 36.7C561 34.3 574 30.7 587 27.5C600 24.3 613 21.7 626 19.8C639 18 652 17 665 17C678 17 691 18 704 17.5C717 17 730 15 743.2 16.5C756.3 18 769.7 23 782.8 26.8C796 30.7 809 33.3 822 35.2C835 37 848 38 861 37.3C874 36.7 887 34.3 893.5 33.2L900 32L900 0L893.5 0C887 0 874 0 861 0C848 0 835 0 822 0C809 0 796 0 782.8 0C769.7 0 756.3 0 743.2 0C730 0 717 0 704 0C691 0 678 0 665 0C652 0 639 0 626 0C613 0 600 0 587 0C574 0 561 0 548 0C535 0 522 0 509 0C496 0 483 0 469.8 0C456.7 0 443.3 0 430.2 0C417 0 404 0 391 0C378 0 365 0 352 0C339 0 326 0 313 0C300 0 287 0 274 0C261 0 248 0 235 0C222 0 209 0 196 0C183 0 170 0 156.8 0C143.7 0 130.3 0 117.2 0C104 0 91 0 78 0C65 0 52 0 39 0C26 0 13 0 6.5 0L0 0Z" fill="#ded7fd"></path><path d="M0 3L6.5 4C13 5 26 7 39 9.5C52 12 65 15 78 14.5C91 14 104 10 117.2 8.3C130.3 6.7 143.7 7.3 156.8 10.7C170 14 183 20 196 23.2C209 26.3 222 26.7 235 24.2C248 21.7 261 16.3 274 13C287 9.7 300 8.3 313 9.3C326 10.3 339 13.7 352 16.2C365 18.7 378 20.3 391 20.3C404 20.3 417 18.7 430.2 16.8C443.3 15 456.7 13 469.8 12.5C483 12 496 13 509 12C522 11 535 8 548 6.5C561 5 574 5 587 9C600 13 613 21 626 24.8C639 28.7 652 28.3 665 25.3C678 22.3 691 16.7 704 15.7C717 14.7 730 18.3 743.2 18C756.3 17.7 769.7 13.3 782.8 13.3C796 13.3 809 17.7 822 17.5C835 17.3 848 12.7 861 12.7C874 12.7 887 17.3 893.5 19.7L900 22L900 0L893.5 0C887 0 874 0 861 0C848 0 835 0 822 0C809 0 796 0 782.8 0C769.7 0 756.3 0 743.2 0C730 0 717 0 704 0C691 0 678 0 665 0C652 0 639 0 626 0C613 0 600 0 587 0C574 0 561 0 548 0C535 0 522 0 509 0C496 0 483 0 469.8 0C456.7 0 443.3 0 430.2 0C417 0 404 0 391 0C378 0 365 0 352 0C339 0 326 0 313 0C300 0 287 0 274 0C261 0 248 0 235 0C222 0 209 0 196 0C183 0 170 0 156.8 0C143.7 0 130.3 0 117.2 0C104 0 91 0 78 0C65 0 52 0 39 0C26 0 13 0 6.5 0L0 0Z" fill="#ffffff"></path></svg>